<?xml version="1.0" standalone="no"?>
<!DOCTYPE svg PUBLIC "-//W3C//DTD SVG 20010904//EN"
 "http://www.w3.org/TR/2001/REC-SVG-20010904/DTD/svg10.dtd">
          <svg
            xmlns="http://www.w3.org/2000/svg"
            viewBox="0 0 960 1099"
            preserveAspectRatio="xMidYMid meet"
          >
            <path
              fill="#000000"
              d="M250 1099c-37 -15 -68 -48 -75 -79 -3 -15 -38 -68 -77 -116 -39 -49 -75 -95 -81 -102 -20 -25 3 -24 48 3 26 15 49 25 51 22 3 -2 0 -16 -6 -31 -37 -97 42 -206 150 -206 34 0 52 -8 101 -46 42 -32 62 -55 66 -75 3 -16 12 -29 19 -29 10 0 14 -15 14 -55 0 -52 -1 -55 -26 -55 -46 0 -93 -36 -94 -72 0 -11 7 -18 20 -18 11 0 20 4 20 9 0 18 32 41 56 41 24 0 24 -1 24 -94 l0 -95 -32 -3c-22 -2 -34 -9 -36 -20 -3 -16 5 -18 67 -18 63 0 71 2 71 19 0 11 -4 21 -9 23 -6 2 -11 44 -12 93l-2 90 106 3c59 1 107 6 107 10 0 3 -32 39 -71 78l-71 71 54 7c29 4 67 11 84 17 21 6 40 6 58 0 32 -13 34 -47 6 -108 -18 -42 -18 -43 0 -53 15 -8 21 -3 39 35 12 25 21 54 21 64 0 24 11 32 29 21 17 -10 9 -57 -21 -118 -19 -40 -19 -45 -5 -60 15 -14 19 -10 49 54 27 59 33 83 36 162 7 159 -42 282 -154 381 -85 76 -219 126 -319 119 -38 -2 -40 -1 -46 32 -8 48 -27 75 -66 94 -38 18 -57 19 -93 5z m70 -39c19 0 50 -45 50 -72 0 -21 -12 -41 -44 -71 -49 -48 -71 -86 -79 -137 -5 -36 3 -98 18 -134 8 -17 5 -19 -25 -12 -60 12 -109 79 -96 130 3 14 33 56 66 93 53 60 60 72 60 110 0 39 -2 43 -25 43 -29 0 -32 11 -7 32 22 20 44 28 60 22 8 -2 18 -4 22 -4z m-90 -108c0 -8 -43 -32 -57 -32 -3 0 2 9 12 20 18 20 45 27 45 12z m372 -48c88 -28 70 -38 -56 -31 -96 6 -122 4 -147 -8 -62 -33 -86 -112 -53 -181 13 -28 32 -42 100 -74 45 -22 88 -40 93 -40 16 0 14 -8 -16 -51 -33 -45 -43 -48 -63 -14 -9 13 -42 46 -74 72 -73 59 -96 101 -96 171 0 149 131 214 312 156z m41 -381l32 -18 -49 -3c-56 -4 -69 4 -42 24 24 17 21 18 59 -3z m-60 -142c20 -19 37 -39 37 -44 0 -4 -26 -7 -57 -5l-58 3 0 45c-1 72 1 72 78 1z"
            />
          </svg>
